<svg xmlns="http://www.w3.org/2000/svg" viewBox="0 0 819.72 512.96"><defs><style>.a{fill:#f3e4b2;}.b{mask:url(#a);}.c{fill:#b0851e;}.d,.f,.i{fill:none;stroke-miterlimit:10;}.d{stroke:#7ca3dc;}.d,.f{stroke-width:1.24px;}.e{mask:url(#c);}.f{stroke:#b0851e;}.g{opacity:0.75;isolation:isolate;}.h{fill:url(#d);}.i{stroke:#474597;stroke-width:2.49px;}.j{filter:url(#b);}</style><filter id="b" filterUnits="userSpaceOnUse" color-interpolation-filters="sRGB"><feColorMatrix values="-1 0 0 0 1 0 -1 0 0 1 0 0 -1 0 1 0 0 0 1 0"/></filter><linearGradient id="d" x1="41.87" y1="285.02" x2="662.48" y2="285.02" gradientUnits="userSpaceOnUse"><stop offset="0" stop-color="#2f2f7f"/><stop offset=".1" stop-color="#313382"/><stop offset=".21" stop-color="#35408b"/><stop offset=".31" stop-color="#3d559a"/><stop offset=".42" stop-color="#4772ae"/><stop offset=".49" stop-color="#4f88be"/><stop offset=".57" stop-color="#426da3"/><stop offset=".7" stop-color="#30457d"/><stop offset=".82" stop-color="#232961"/><stop offset=".92" stop-color="#1b1750"/><stop offset="1" stop-color="#18114a"/></linearGradient></defs><title>EG Logo</title><path class="a" d="M562.58 344.53q12.79-32.54-14.36-35.07t-48.85-2.57l9-26.16h238.62l-56.15 165.9q-14.69 45.94-51 57.43-19.14 7.66-47.22 7.66H242.26q-28.71 0-37.65-16a33.53 33.53 0 0 1-3.19-14v-2.55q0-14 12.12-44.67L348.82 53.56a99.5 99.5 0 0 1 14-24.25q21.68-28.07 61.9-28.08h335q43.39 0 53.6 16a29 29 0 0 1 5.74 17.87v3.83q0 11.49-9.57 38.29l-15.31 46.58H617.46q14-39.56 16-49.13c.42-3.83.64-6.59.64-8.3v-1.91q0-22.33-24.89-30-9.57-2.54-24.89-2.55H446.45l-8.3 24.89h17.22q26.16 0 40.84 8.93 12.16 8.26 12.16 25.48a70.52 70.52 0 0 1-5.74 28.08l-125.1 361.17h70.19q32.54 0 51-12.12 22.33-12.11 33.18-40.2z"/><g class="b"><path class="c" d="M562.58 344.53q12.79-32.54-14.36-35.07t-48.85-2.57l9-26.16h238.62l-56.15 165.9q-14.69 45.94-51 57.43-19.14 7.66-47.22 7.66H242.26q-28.71 0-37.65-16a33.53 33.53 0 0 1-3.19-14v-2.55q0-14 12.12-44.67L348.82 53.56a99.5 99.5 0 0 1 14-24.25q21.68-28.07 61.9-28.08h335q43.39 0 53.6 16a29 29 0 0 1 5.74 17.87v3.83q0 11.49-9.57 38.29l-15.31 46.58H617.46q14-39.56 16-49.13c.42-3.83.64-6.59.64-8.3v-1.91q0-22.33-24.89-30-9.57-2.54-24.89-2.55H446.45l-8.3 24.89h17.22q26.16 0 40.84 8.93 12.16 8.26 12.16 25.48a70.52 70.52 0 0 1-5.74 28.08l-125.1 361.17h70.19q32.54 0 51-12.12 22.33-12.11 33.18-40.2z"/></g><path class="d" d="M562.58 344.53q12.79-32.54-14.36-35.07t-48.85-2.57l9-26.16h238.62l-56.15 165.9q-14.69 45.94-51 57.43-19.14 7.66-47.22 7.66H242.26q-28.71 0-37.65-16a33.53 33.53 0 0 1-3.19-14v-2.55q0-14 12.12-44.67L348.82 53.56a99.5 99.5 0 0 1 14-24.25q21.68-28.07 61.9-28.08h335q43.39 0 53.6 16a29 29 0 0 1 5.74 17.87v3.83q0 11.49-9.57 38.29l-15.31 46.58H617.46q14-39.56 16-49.13c.42-3.83.64-6.59.64-8.3v-1.91q0-22.33-24.89-30-9.57-2.54-24.89-2.55H446.45l-8.3 24.89h17.22q26.16 0 40.84 8.93 12.16 8.26 12.16 25.48a70.52 70.52 0 0 1-5.74 28.08l-125.1 361.17h70.19q32.54 0 51-12.12 22.33-12.11 33.18-40.2z"/><g class="e"><path class="f" d="M562.58 344.53q12.79-32.54-14.36-35.07t-48.85-2.57l9-26.16h238.62l-56.15 165.9q-14.69 45.94-51 57.43-19.14 7.66-47.22 7.66H242.26q-28.71 0-37.65-16a33.53 33.53 0 0 1-3.19-14v-2.55q0-14 12.12-44.67L348.82 53.56a99.5 99.5 0 0 1 14-24.25q21.68-28.07 61.9-28.08h335q43.39 0 53.6 16a29 29 0 0 1 5.74 17.87v3.83q0 11.49-9.57 38.29l-15.31 46.58H617.46q14-39.56 16-49.13c.42-3.83.64-6.59.64-8.3v-1.91q0-22.33-24.89-30-9.57-2.54-24.89-2.55H446.45l-8.3 24.89h17.22q26.16 0 40.84 8.93 12.16 8.26 12.16 25.48a70.52 70.52 0 0 1-5.74 28.08l-125.1 361.17h70.19q32.54 0 51-12.12 22.33-12.11 33.18-40.2z"/></g><g class="g"><path class="h" d="M44.03 1.24h335q43.39 0 64.59 16a70.42 70.42 0 0 1 18 17.87l2.64 3.83q7.91 11.49 16.79 38.29l16.76 46.58H321.1q-13.22-39.56-17.88-49.13c-2.22-3.83-3.9-6.59-5.07-8.3l-1.33-1.92q-15.38-22.33-45.54-30a122.84 122.84 0 0 0-26.64-2.55H86.81l8.84 24.89h17.23q26.16 0 47 8.93c11.88 5.53 29.7 25.52 29.7 25.52s11.27 19.14 13.59 28.08l37.69 108.43h234.82l10.24 30.63H165.6l8.2 24.89h15.31q35.08 0 57.08 13.4a77 77 0 0 1 21.52 21.06q11 16 21.43 45.94l37.68 116.78h70.19q32.54 0 42.7-12.12 14-12.11 5.5-40.2-4.18-15.31-12.13-38.92h163.34q22.89 63.81 23.41 68.28 7.77 34.46-14.5 46.58-13.87 7.66-41.95 7.66H213.07q-28.71 0-48.63-16a76.72 76.72 0 0 1-12.86-14l-1.76-2.55q-9.66-14-18.64-44.67L4.13 53.56a65.83 65.83 0 0 1-2.66-24.24Q3.82 1.24 44.03 1.24z"/></g><path class="i" d="M44.03 1.24h335q43.39 0 64.59 16a70.42 70.42 0 0 1 18 17.87l2.64 3.83q7.91 11.49 16.79 38.29l16.76 46.58H321.1q-13.22-39.56-17.88-49.13c-2.22-3.83-3.9-6.59-5.07-8.3l-1.33-1.92q-15.38-22.33-45.54-30a122.84 122.84 0 0 0-26.64-2.55H86.81l8.84 24.89h17.23q26.16 0 47 8.93c11.88 5.53 29.7 25.52 29.7 25.52s11.27 19.14 13.59 28.08l37.69 108.43h234.82l10.24 30.63H165.6l8.2 24.89h15.31q35.08 0 57.08 13.4a77 77 0 0 1 21.52 21.06q11 16 21.43 45.94l37.68 116.78h70.19q32.54 0 42.7-12.12 14-12.11 5.5-40.2-4.18-15.31-12.13-38.92h163.34q22.89 63.81 23.41 68.28 7.77 34.46-14.5 46.58-13.87 7.66-41.95 7.66H213.07q-28.71 0-48.63-16a76.72 76.72 0 0 1-12.86-14l-1.76-2.55q-9.66-14-18.64-44.67L4.13 53.56a65.83 65.83 0 0 1-2.66-24.24Q3.82 1.24 44.03 1.24z"/></svg>